<svg width="87" height="81" viewBox="0 0 87 81" fill="none" xmlns="http://www.w3.org/2000/svg">
<path d="M63.946 24.5491L66.4526 25.0246L70.6495 21.9983L75.3963 24.0625L74.4585 17.9595L78.5338 12.4886L76.2241 11.4482" stroke="white" stroke-width="2" stroke-miterlimit="10" stroke-linejoin="round"/>
<path d="M68.3397 7.07935L70.6668 11.974L76.224 11.4482L72.1487 16.919L73.0865 23.0164L68.3397 20.9523L63.946 24.5491L64.7622 18.5413L62.2556 15.0954L66.0994 13.1767L68.3397 7.07935Z" fill="#B0CB1F" stroke="white" stroke-width="2" stroke-miterlimit="10" stroke-linecap="round" stroke-linejoin="round"/>
<path d="M59.9286 26.0987L11.9915 36.1957V23.1898L59.9286 11.3699" stroke="white" stroke-width="2" stroke-miterlimit="10" stroke-linejoin="bevel"/>
<path d="M14.9148 66.5874V37.0963" stroke="white" stroke-width="2" stroke-miterlimit="10" stroke-linejoin="bevel"/>
<path d="M84.9998 20.102V74.7546" stroke="white" stroke-width="2" stroke-miterlimit="10" stroke-linejoin="bevel"/>
<path d="M30.5447 56.2331H22.614V43.2608L30.5447 41.5826V56.2331Z" stroke="white" stroke-width="2" stroke-miterlimit="10" stroke-linejoin="bevel"/>
<path d="M24.5532 56.0541V44.3908L30.5446 43.2272" stroke="white" stroke-width="2" stroke-miterlimit="10" stroke-linejoin="bevel"/>
<path d="M72.2067 56.0541H58.6782V35.8433L72.2067 33.3708V56.0541Z" stroke="white" stroke-width="2" stroke-miterlimit="10" stroke-linejoin="bevel"/>
<path d="M61.312 55.808V37.432L72.2066 35.4349" stroke="white" stroke-width="2" stroke-miterlimit="10" stroke-linejoin="bevel"/>
<path d="M48.9357 66.4029L37.1902 66.2742V39.5073L48.9357 37.1523V66.4029Z" stroke="white" stroke-width="2" stroke-miterlimit="10" stroke-linejoin="bevel"/>
<path d="M39.5344 66.3022V41.482L48.9355 39.8709" stroke="white" stroke-width="2" stroke-miterlimit="10" stroke-linejoin="bevel"/>
<path d="M11.9915 36.1956L14.9148 37.0962L59.9286 28.7333" stroke="white" stroke-width="2" stroke-miterlimit="10" stroke-linejoin="bevel"/>
<path d="M68.3398 7.07935L71.1879 8.44986L72.803 11.7726" stroke="white" stroke-width="2" stroke-miterlimit="10" stroke-linejoin="bevel"/>
<path d="M59.9053 29.0802L59.6042 8.29316L80.7681 2V25.1644L59.9053 29.0802Z" stroke="white" stroke-width="2" stroke-miterlimit="10"/>
<path d="M2 69.6641V72.2988L69.1791 79.6492L69.0633 74.542L2 69.6641Z" stroke="white" stroke-width="2" stroke-miterlimit="10" stroke-linecap="square" stroke-linejoin="round"/>
<path d="M69.0635 74.5419L85.0001 70.9506V74.4859L69.1793 79.6491" stroke="white" stroke-width="2" stroke-miterlimit="10" stroke-linecap="square" stroke-linejoin="round"/>
<path d="M2 69.664L10.4459 68.9871V66.3804L19.708 65.8489L78.8754 67.7565L78.8464 70.9786L68.2471 73.1378L10.1854 68.9871" stroke="white" stroke-width="2" stroke-miterlimit="10" stroke-linecap="square" stroke-linejoin="round"/>
<path d="M10.446 66.3804L68.4788 69.0991V73.0931" stroke="white" stroke-width="2" stroke-miterlimit="10" stroke-linecap="square" stroke-linejoin="round"/>
<path d="M68.4788 69.099L78.8755 67.7565" stroke="white" stroke-width="2" stroke-miterlimit="10" stroke-linecap="square" stroke-linejoin="round"/>
<path d="M84.9999 70.9506L78.8464 70.9795" stroke="white" stroke-width="2" stroke-miterlimit="10" stroke-linecap="square" stroke-linejoin="round"/>
<path d="M66.9795 36.4305V56.0539" stroke="white" stroke-width="2" stroke-miterlimit="10" stroke-linejoin="bevel"/>
<path d="M27.9858 43.6635V56.233" stroke="white" stroke-width="2" stroke-miterlimit="10" stroke-linejoin="bevel"/>
<path d="M80.7684 2L85 4.09772V26.3895L62.8983 29.9136L59.9055 29.0802" stroke="white" stroke-width="2" stroke-miterlimit="10" stroke-linejoin="bevel"/>
<path d="M78.8755 27.0663V70.4136" stroke="white" stroke-width="2" stroke-miterlimit="10"/>
<path d="M17.9944 36.727V66.3859" stroke="white" stroke-width="2" stroke-miterlimit="10"/>
</svg>
