<svg width="66" height="59" viewBox="0 0 66 59" fill="none" xmlns="http://www.w3.org/2000/svg">
<path d="M1.00994 45.6578C0.782385 41.7893 4.51809 40.0637 6.41438 39.6844V6.68889M1.00994 45.6578C1.00994 38.376 1.00994 16.6444 1.00994 6.68889C1.19957 4.79259 2.54595 1 6.41438 1V6.68889M1.00994 45.6578C1.00994 49.9813 4.6129 51.2519 6.41438 51.3467H58.1833V6.68889H6.41438" stroke="white" stroke-width="2"/>
<path d="M52.4944 10.9556V46.7956" stroke="white"/>
<path d="M49.6499 12.6622V45.6578" stroke="white" stroke-width="0.4"/>
<path d="M47.3744 12.6622V45.6578" stroke="white" stroke-width="0.4"/>
<path d="M44.5299 12.6622V45.6578" stroke="white" stroke-width="0.4"/>
<path d="M42.2544 12.6622V45.6578" stroke="white" stroke-width="0.4"/>
<path d="M39.4099 12.6622V45.6578" stroke="white" stroke-width="0.4"/>
<path d="M37.1344 12.6622V45.6578" stroke="white" stroke-width="0.4"/>
<path d="M34.2899 12.6622V45.6578" stroke="white" stroke-width="0.4"/>
<path d="M32.0144 12.6622V45.6578" stroke="white" stroke-width="0.4"/>
<path d="M29.1699 12.6622V45.6578" stroke="white" stroke-width="0.4"/>
<path d="M26.8944 12.6622V45.6578" stroke="white" stroke-width="0.4"/>
<path d="M24.0499 12.6622V45.6578" stroke="white" stroke-width="0.4"/>
<path d="M21.7744 12.6622V45.6578" stroke="white" stroke-width="0.4"/>
<path d="M18.9299 12.6622V45.6578" stroke="white" stroke-width="0.4"/>
<path d="M16.6544 12.6622V45.6578" stroke="white" stroke-width="0.4"/>
<path d="M13.8099 12.6622V45.6578" stroke="white" stroke-width="0.4"/>
<path d="M11.5344 12.6622V45.6578" stroke="white" stroke-width="0.4"/>
<path d="M8.68994 12.6622V45.6578" stroke="white" stroke-width="0.4"/>
<path d="M52.4944 14.9378L6.41439 14.9378" stroke="white" stroke-width="0.4"/>
<path d="M52.4944 17.7822L6.41439 17.7822" stroke="white" stroke-width="0.4"/>
<path d="M52.4944 20.0578L6.41439 20.0578" stroke="white" stroke-width="0.4"/>
<path d="M52.4944 22.3333L6.41439 22.3333" stroke="white" stroke-width="0.4"/>
<path d="M52.4944 25.1778L6.41439 25.1778" stroke="white" stroke-width="0.4"/>
<path d="M52.4944 27.4533L6.41439 27.4533" stroke="white" stroke-width="0.4"/>
<path d="M52.4944 30.2978L6.41439 30.2978" stroke="white" stroke-width="0.4"/>
<path d="M52.4944 33.1422H6.41439" stroke="white" stroke-width="0.4"/>
<path d="M52.4944 35.4178H6.41439" stroke="white" stroke-width="0.4"/>
<path d="M52.4944 37.6933H6.41439" stroke="white" stroke-width="0.4"/>
<path d="M52.4944 39.9689H6.41439" stroke="white" stroke-width="0.4"/>
<path d="M52.4944 42.2444H6.41439" stroke="white" stroke-width="0.4"/>
<path d="M5.84546 39.9689L5.84546 46.7955" stroke="white"/>
<path d="M53.9166 12.3777H6.69885" stroke="white"/>
<path d="M53.6322 45.6578L4.70776 45.6578" stroke="white"/>
<path d="M29.3431 18.92L26.0485 26.2513L18.3611 27.3792L24.0351 32.0787L22.9369 40.5378L29.7092 36.5902L36.6645 40.5378L34.8341 32.6426L39.41 27.3792L32.6377 25.8753L29.3431 18.92Z" fill="#B0CB1F"/>
<path d="M65 24.8933L31.72 57.8889H65V24.8933Z" fill="#151515" stroke="white" stroke-width="2"/>
</svg>
