<svg width="84" height="65" viewBox="0 0 84 65" fill="none" xmlns="http://www.w3.org/2000/svg">
<path d="M25.5499 4.86633L2 4.72894L4.27481 40.0873L53.7518 37.7023L50.624 4.86633L31.2881 4.72894" stroke="white" stroke-width="2" stroke-miterlimit="10"/>
<path d="M22.28 39.3509L22.5644 43.2912L31.6636 42.6483L35.6445 38.4387" stroke="white" stroke-width="2" stroke-miterlimit="10"/>
<path d="M6.92505 9.03745L9.10886 36.79L49.39 34.7731L47.3995 8.66925L6.92505 9.03745Z" stroke="white" stroke-width="2" stroke-miterlimit="10"/>
<path d="M32.3744 3.30012C32.454 4.45968 30.7365 5.41591 28.4162 5.41591C25.9367 5.41591 23.7983 4.33878 23.7983 3.04183C23.7983 1.76686 25.857 0.876585 28.257 1.01397C30.509 1.14587 32.2947 2.15705 32.3744 3.30012Z" stroke="white" stroke-width="2" stroke-miterlimit="10"/>
<path d="M26.8467 12.3678L30.8048 18.2975L37.8283 19.0724L33.4152 23.7216L35.3601 29.9865L28.7404 27.3432L22.5984 30.7944L23.0079 24.1448L16.8489 19.5835L24.3273 18.4294L26.8467 12.3678Z" fill="#B0CB1F"/>
<path d="M21.9045 41.3678C11.3835 43.1099 9.7741 46.2204 18.7766 47.6877C27.7792 49.155 40.956 48.3307 43.4185 45.0333C45.881 41.736 33.2785 40.8073 33.2785 40.8073" stroke="white" stroke-width="2" stroke-miterlimit="10"/>
<path d="M12.1399 54.0076L56.5953 50.0728L62.1856 58.1292L14.0337 63.8116L12.1399 54.0076Z" stroke="white" stroke-width="2" stroke-miterlimit="10"/>
<path d="M64.2955 50.3805C65.3533 51.9522 67.2528 53.9087 69.1977 53.9197C72.3768 53.9361 74.3502 51.8588 71.6886 49.0781C69.0214 46.2918 61.5202 46.2589 64.2955 50.3805Z" stroke="white" stroke-width="2" stroke-miterlimit="10"/>
<path d="M46.6431 50.985L50.4306 59.2284" stroke="white" stroke-width="2" stroke-miterlimit="10"/>
<path d="M43.7996 8.7627L45.881 35.1413" stroke="white" stroke-width="2" stroke-miterlimit="10"/>
<path d="M44.4592 14.0723L47.3994 13.9835" stroke="white" stroke-width="2" stroke-miterlimit="10"/>
<path d="M44.4592 18.1931L47.7804 18.3799" stroke="white" stroke-width="2" stroke-miterlimit="10"/>
<path d="M45.5967 29.0962L48.7245 28.9094" stroke="white" stroke-width="2" stroke-miterlimit="10"/>
<path d="M68.4414 40.9117L68.6291 11.417C73.8156 11.9446 79.0818 11.3951 82.4201 10.5817L82.1357 39.4554C78.8202 41.1755 76.0108 41.5272 68.4414 40.9117Z" stroke="white" stroke-width="2" stroke-miterlimit="10"/>
<path d="M68.6291 11.417L57.0674 9.03748L57.4712 36.191L68.4414 40.9117" stroke="white" stroke-width="2" stroke-miterlimit="10"/>
<path d="M57.0674 9.03747L67.7078 8.7627L82.9206 10.5817" stroke="white" stroke-width="2" stroke-miterlimit="10"/>
<path d="M68.6292 22.7324C76.8753 24.3371 82.1358 21.952 82.1358 21.952" stroke="white" stroke-width="2" stroke-miterlimit="10"/>
<path d="M78.5471 25.3867V27.1728L81.1802 26.7606V24.9745L78.5471 25.3867Z" stroke="white" stroke-width="2" stroke-miterlimit="10"/>
</svg>
