<svg width="79" height="67" viewBox="0 0 79 67" fill="none" xmlns="http://www.w3.org/2000/svg">
<path d="M33.309 55.1115L25.9512 51.7823L13.7344 59.5862L16.0386 45.2476L5.99805 36.099L19.7509 33.071L25.6673 20.2222L31.7395 32.2212L44.8412 33.2539L35.5409 43.6287L37.0436 51.992" fill="#B0CB1F"/>
<path d="M33.309 55.1115L25.9512 51.7823L13.7344 59.5862L16.0386 45.2476L5.99805 36.099L19.7509 33.071L25.6673 20.2222L31.7395 32.2212L44.8412 33.2539L35.5409 43.6287L37.0436 51.992" stroke="white" stroke-width="2" stroke-miterlimit="10" stroke-linejoin="bevel"/>
<path d="M13.7344 59.5862L8.01281 56.9293L10.3226 42.9994L1 34.6146L13.2557 32.3665L18.9439 20.362L25.6673 20.2222" stroke="white" stroke-width="2" stroke-miterlimit="10" stroke-linejoin="bevel"/>
<path d="M31.2163 31.1887L37.8618 31.6996L44.8412 33.2539" stroke="white" stroke-width="2" stroke-miterlimit="10" stroke-linejoin="bevel"/>
<path d="M34.4334 1.33887C29.7749 8.36298 27.6265 12.87 23.2964 20.2706" stroke="white" stroke-width="2" stroke-miterlimit="10" stroke-linejoin="bevel"/>
<path d="M34.4333 1.16135C34.4277 1.13984 34.4221 1.11295 34.4166 1.09143C34.3331 1.09143 34.2663 1.06992 34.2607 1C34.8006 1.13984 35.4128 1.30657 36.0084 1.34959C36.5037 1.38724 37.0102 1.30119 37.5 1.33884C37.9007 1.37111 38.3015 1.48405 38.7022 1.52708C39.0194 1.56473 39.3756 1.5217 39.6984 1.5217C39.8599 1.5217 40.0268 1.5217 40.1882 1.5217C40.3274 1.5217 40.383 1.5701 40.4832 1.59162C40.717 1.64002 40.973 1.5701 41.2068 1.62927C41.4628 1.69381 41.6798 1.69918 41.947 1.69918C42.0361 1.69918 42.1362 1.69381 42.2253 1.69918C42.37 1.70456 42.459 1.7691 42.5982 1.79599C42.8765 1.8444 43.177 1.75835 43.4553 1.81213C43.6445 1.84978 43.767 1.88743 43.9674 1.88205C44.1009 1.88205 44.2289 1.87129 44.357 1.90356C44.5017 1.94121 44.5685 1.97886 44.7299 1.97348C44.8579 1.9681 44.9803 1.96272 45.1028 1.99499C45.331 2.04878 45.5091 2.06491 45.754 2.06491C45.8708 2.06491 46.01 2.0434 46.1269 2.05953C46.266 2.08105 46.3551 2.15096 46.4998 2.15634C46.6222 2.16172 46.7502 2.13483 46.8727 2.15096C47.0007 2.1671 47.0341 2.22088 47.1454 2.24777C47.2623 2.27467 47.407 2.21013 47.5239 2.23702C47.6407 2.26391 47.6519 2.37148 47.7966 2.33383" stroke="white" stroke-width="2" stroke-miterlimit="10" stroke-linejoin="bevel"/>
<path d="M47.5129 1.87666C47.0788 1.83363 47.5463 2.29617 47.6298 2.39298C47.7968 2.57584 47.9192 2.834 48.0472 3.04376C48.2198 3.32343 48.4368 3.57621 48.6094 3.85051C48.8375 4.21086 48.9823 4.62499 49.2049 4.99072C49.4164 5.33493 49.6668 5.65763 49.8616 6.00184C49.9563 6.17395 50.0843 6.2869 50.19 6.44825C50.2178 6.50741 50.2512 6.57195 50.2735 6.63111C50.3292 6.70641 50.4071 6.72254 50.4627 6.80322C50.5462 6.91616 50.5796 7.05062 50.6687 7.16894C50.7856 7.32492 50.9191 7.47013 51.0416 7.62072C51.2252 7.84662 51.3811 8.09402 51.5814 8.30377C51.626 8.20159 51.5648 8.11553 51.4089 8.15318" stroke="white" stroke-width="2" stroke-miterlimit="10" stroke-linejoin="bevel"/>
<path d="M51.5036 8.33069C51.3477 8.31993 51.2754 8.51355 51.2086 8.61574C51.0527 8.85777 50.908 9.08366 50.7689 9.33644C50.4461 9.9173 50.101 10.5143 49.8394 11.1274C49.6669 11.5254 49.4943 11.8804 49.2606 12.2461C48.9656 12.7194 48.7151 13.2142 48.4257 13.6875C48.3088 13.8758 48.1697 14.0371 48.0751 14.2415C47.9749 14.4459 47.9137 14.6718 47.8079 14.8761C47.5742 15.301 47.2847 15.6936 47.0566 16.1293C46.7616 16.694 46.5278 17.2695 46.244 17.8342C46.0659 18.1892 45.9712 18.6141 45.8265 18.9959C45.6874 19.367 45.4982 19.7166 45.3145 20.0716C45.2087 20.2814 45.1086 20.4857 45.0362 20.7063C44.9638 20.9106 44.8414 21.0505 44.7523 21.2387C44.1512 22.5725 43.539 23.9494 42.7153 25.2025C42.6262 25.3424 42.5761 25.4822 42.5094 25.6328C42.4259 25.8211 42.2979 25.9716 42.2311 26.1706C42.1587 26.3643 42.0418 26.531 41.9528 26.7085C41.8637 26.886 41.7803 27.0581 41.6968 27.2463C41.6244 27.413 41.4853 27.5367 41.4129 27.6927C41.335 27.8648 39.2979 31.8233 39.1978 31.9954" stroke="white" stroke-width="2" stroke-miterlimit="10" stroke-linejoin="bevel"/>
<path d="M46.9562 2.59193C46.8393 2.5005 46.8337 2.33915 46.9618 2.26385C46.9618 2.47899 46.7837 2.68874 46.7002 2.87699C46.5332 3.26423 46.3885 3.57617 46.1436 3.93114C45.9043 4.27535 45.7596 4.72714 45.5648 5.10362C45.3811 5.46397 45.1807 5.81894 45.0026 6.17929C44.7188 6.7709 44.4461 7.35714 44.0731 7.90573C43.8338 8.26608 43.5945 8.64257 43.4498 9.04594C43.3106 9.4278 43.0713 9.7505 42.8932 10.1216C42.7262 10.4712 42.5593 10.8423 42.3812 11.1973C42.2142 11.5415 42.0027 11.8534 41.8302 12.1976C41.5964 12.6656 41.2402 13.0797 41.0343 13.5422C40.6948 14.3167 40.2773 15.0804 39.9267 15.8495C39.6373 16.4896 39.3367 17.1135 38.9972 17.732C38.9026 17.9041 38.7801 18.0923 38.7134 18.2698C38.641 18.4688 38.5353 18.614 38.4406 18.8076C38.2625 19.1572 32.0011 30.8336 31.823 31.1778" stroke="white" stroke-width="2" stroke-miterlimit="10" stroke-linejoin="bevel"/>
<path d="M33.2256 53.5948C33.2534 53.3851 33.2979 53.3905 33.4816 53.3044C33.6041 53.2452 33.7265 53.1861 33.8545 53.1269C34.0493 53.0355 34.2274 53.0086 34.4333 52.9548C34.6504 52.8956 34.8619 52.7451 35.0845 52.6805C35.3127 52.6106 35.5131 52.5353 35.7357 52.4546C36.1086 52.3202 36.4927 52.2287 36.8544 52.0781C38.1568 51.5242 39.5037 51.0885 40.8395 50.5292C41.2013 50.3786 41.5909 50.2818 41.9526 50.1312C42.1085 50.0666 42.2588 49.9913 42.409 49.9268C42.6205 49.8354 42.8543 49.8407 43.0658 49.7493C43.678 49.4858 44.3348 49.2061 45.0082 49.0071C45.7206 48.8027 46.4052 48.4155 47.1399 48.2004C47.4627 48.1089 47.7354 47.9422 48.0694 47.84C48.4423 47.7271 48.8263 47.5657 49.1769 47.4151C49.9951 47.0655 50.8689 46.8396 51.6871 46.4954C52.1101 46.3126 52.5553 46.1727 53.0062 46.0544C53.1286 46.0221 53.2399 45.9415 53.3568 45.9146C53.4792 45.8823 53.6017 45.9146 53.7241 45.8769C53.8243 45.85 53.9078 45.7693 54.0024 45.7371C54.1249 45.694 54.2584 45.6779 54.3809 45.6295C54.5367 45.5596 54.687 45.5273 54.8373 45.452C55.0043 45.3713 55.2102 45.253 55.3939 45.1992C55.7668 45.0917 56.1285 45.0271 56.5126 44.9142C56.8855 44.8066 57.2973 44.656 57.6925 44.5323C57.865 44.4785 58.0821 44.4248 58.2713 44.3548C58.416 44.3011 58.7055 44.215 58.7945 44.0967C58.6387 44.1989 58.4494 44.2365 58.2713 44.2849" stroke="white" stroke-width="2" stroke-miterlimit="10" stroke-linejoin="bevel"/>
<path d="M33.2256 53.7292C33.2701 53.8959 33.2145 54.3907 33.2478 54.5628C33.3258 54.9877 33.3202 55.4019 33.3202 55.8429C33.3202 56.3054 33.4148 56.7249 33.4148 57.1928C33.4148 57.5801 33.4204 57.9673 33.4148 58.3546C33.4148 58.532 33.4426 58.6342 33.4872 58.801C33.5428 59 33.5094 59.2259 33.5094 59.4302C33.5094 59.7583 33.5094 60.0864 33.5094 60.4145C33.5094 60.7425 33.5094 61.0706 33.5094 61.3987C33.5094 61.5493 33.515 61.6999 33.5094 61.8451C33.5094 61.9365 33.5094 62.0065 33.5317 62.0925C33.5484 62.157 33.6263 62.1678 33.5985 62.2646C33.6597 62.1678 33.7209 62.0495 33.6931 61.9365" stroke="white" stroke-width="2" stroke-miterlimit="10" stroke-linejoin="bevel"/>
<path d="M57.904 44.7259C57.8817 44.7259 57.865 44.7259 57.8428 44.7259C58.0153 44.7259 58.1934 44.7259 58.366 44.7259C58.6108 44.7259 58.7834 44.7797 59.0171 44.8227C59.2231 44.855 59.3845 44.8442 59.5904 44.9088C59.8297 44.9787 60.0746 45.0109 60.314 45.0701C60.4921 45.1131 60.6869 45.0916 60.8705 45.0916C60.9596 45.0916 61.0653 45.0755 61.1488 45.0916C61.2379 45.1024 61.288 45.1508 61.3547 45.1615C61.5328 45.1992 61.7165 45.1562 61.8891 45.1992C62.1172 45.2583 62.2954 45.2691 62.5402 45.2691C62.9131 45.2691 63.2805 45.2691 63.6534 45.2691C63.7424 45.2691 63.8482 45.253 63.9317 45.2691C64.0207 45.2799 64.0708 45.3283 64.1376 45.339C64.3435 45.3821 64.5606 45.3175 64.7665 45.3552C64.9446 45.3874 65.1227 45.4358 65.3008 45.4681C65.3621 45.4789 65.4177 45.5273 65.5068 45.538C65.6014 45.5488 65.696 45.5219 65.7906 45.5326C65.9687 45.5542 66.0633 45.6133 66.2526 45.6241C66.4808 45.6348 66.6589 45.7209 66.9038 45.7155C67.1097 45.7101 67.26 45.7962 67.4603 45.8069C67.5494 45.8123 67.6496 45.7854 67.7386 45.8016C67.8444 45.8177 67.9112 45.8822 68.0169 45.9037C68.1171 45.9199 68.195 45.893 68.2952 45.9199C68.4065 45.9468 68.4566 45.9844 68.5735 45.9898C68.8072 46.0006 68.9965 46.0543 69.2247 46.0759C69.6477 46.1189 70.0651 46.2318 70.4992 46.2533C70.7107 46.2641 70.9334 46.3233 71.1448 46.3663C71.4287 46.4201 71.7181 46.4739 72.002 46.5223C72.2636 46.5707 72.4751 46.6191 72.7478 46.6137C72.9593 46.6137 73.104 46.6352 73.3044 46.6836C73.4045 46.7105 73.4825 46.6836 73.5826 46.6997C73.6884 46.7159 73.7552 46.7804 73.8609 46.7966C73.9778 46.8181 74.1002 46.7697 74.2116 46.7858C74.3563 46.8127 74.4565 46.8719 74.6012 46.8826C74.9796 46.9095 75.3303 46.9149 75.692 46.9902C75.7533 47.0009 75.8089 47.0493 75.898 47.0601C75.987 47.0708 76.0872 47.044 76.1818 47.0547C76.3766 47.0816 76.538 47.173 76.7328 47.2161C76.8219 47.2376 76.8998 47.2322 76.9889 47.2537C77.0111 47.2967 77.0445 47.3236 77.0946 47.329C77.1614 47.329 77.2282 47.3236 77.295 47.3183C77.5232 47.4097 77.3005 47.77 77.2838 47.9529C77.2504 48.3993 77.295 48.8511 77.2838 49.2975C77.2783 49.5234 77.3785 49.6955 77.3785 49.9267C77.3729 50.1526 77.3339 50.4269 77.3729 50.6421C77.4119 50.8626 77.551 51.0454 77.5677 51.2713C77.5844 51.508 77.5677 51.75 77.5677 51.9867C77.5677 52.8848 77.5677 53.7776 77.5677 54.6758C77.5677 54.8856 77.5788 55.0953 77.5677 55.3051C77.5566 55.4449 77.4898 55.531 77.4675 55.6654C77.4452 55.773 77.4731 55.9128 77.4731 56.0258C77.4731 56.4345 77.5621 56.9616 77.4619 57.3542C77.0556 57.3865 76.7495 57.6769 76.3599 57.7953C75.8479 57.9459 75.4527 58.204 74.9685 58.4245C74.8071 58.4998 74.6401 58.5321 74.4843 58.602C74.2895 58.6881 74.1392 58.8333 73.95 58.9193C73.7607 59.0108 73.5659 59.0592 73.3878 59.1614C73.2264 59.2528 73.1095 59.4303 72.9259 59.5002C72.8257 59.5378 72.7366 59.5378 72.642 59.5862C72.5975 59.6131 72.5641 59.6454 72.5307 59.6831C72.4751 59.7046 72.4194 59.7099 72.3637 59.6992C72.2747 59.7476 72.2413 59.8014 72.1578 59.8605C72.1356 59.8767 71.9463 59.9896 71.9241 59.995C71.7626 60.0434 71.8962 59.9896 71.7404 59.9412C71.6569 59.9143 71.5511 59.8821 71.4565 59.8552C71.2395 59.7906 71.0168 59.597 70.7886 59.5325C70.5771 59.4733 70.3545 59.4572 70.1375 59.4034C69.9927 59.3711 69.9204 59.3388 69.7646 59.3335C69.6198 59.3281 69.5308 59.2582 69.3916 59.2367C69.2469 59.2151 69.1635 59.2205 69.0187 59.1721C68.9019 59.1345 68.7683 59.0753 68.6458 59.0538C68.4176 59.0215 68.1561 59.0215 67.9334 58.957C67.9613 58.8548 68.0392 58.801 68.0893 58.7096C68.195 58.5213 68.1839 58.3761 68.1783 58.1664" stroke="white" stroke-width="2" stroke-miterlimit="10" stroke-linejoin="bevel"/>
<path d="M33.415 62.4744C33.3871 62.469 33.3649 62.4636 33.337 62.4582C33.3036 62.3453 33.2536 62.0387 33.4094 62.0118C33.4984 61.9957 33.6877 62.1786 33.7545 62.227C33.8769 62.3076 34.0383 62.4152 34.1719 62.4529C34.2554 62.4797 34.3277 62.4636 34.4112 62.4905C34.478 62.512 34.5726 62.6088 34.6394 62.6303C34.7953 62.6787 34.9233 62.7003 35.0791 62.7648C35.1793 62.8024 35.2739 62.8024 35.363 62.8293C35.4464 62.8562 35.4576 62.91 35.5411 62.9477C35.8806 63.109 36.2034 63.1951 36.5652 63.3026C36.9436 63.4156 37.2776 63.6361 37.6783 63.6361C38.0067 63.6361 38.4018 63.7813 38.6968 63.905C38.8471 63.9695 39.0029 63.9534 39.1699 63.9857C39.2979 64.0126 39.4371 64.1094 39.5595 64.147C39.938 64.2707 40.2664 64.3514 40.6504 64.4428C41.0122 64.5235 41.3795 64.5719 41.7413 64.6418C41.8526 64.6634 42.0418 64.7602 42.1531 64.7817C42.2478 64.7978 42.3145 64.7978 42.4092 64.7978C42.5539 64.8032 42.6429 64.8731 42.7765 64.8946C42.9379 64.9215 43.0937 64.9161 43.244 64.9753C43.3108 65.0076 43.3498 65.056 43.4221 65.0721C43.5167 65.0936 43.6169 65.0452 43.7115 65.0613C43.8618 65.0936 44.0121 65.185 44.1735 65.2227C44.2737 65.2442 44.3516 65.2227 44.4518 65.2388C44.5909 65.2603 44.68 65.3303 44.8247 65.3356C45.0139 65.341 45.1085 65.4056 45.2866 65.4271C45.3757 65.4378 45.4759 65.4002 45.5649 65.4217C45.6651 65.4432 45.7375 65.5024 45.8432 65.5185C45.9323 65.5346 46.0324 65.5077 46.1215 65.5131C46.2384 65.5185 46.2885 65.5562 46.3998 65.583C46.6002 65.6315 46.8395 65.6046 47.051 65.6046C47.2569 65.5992 47.4072 65.6852 47.6075 65.696C47.7912 65.7067 47.9805 65.696 48.1641 65.696C48.5649 65.696 48.9656 65.696 49.3719 65.696C49.5556 65.696 49.7448 65.696 49.9285 65.696C50.0119 65.696 50.1344 65.6745 50.2123 65.6906C50.2958 65.7121 50.3014 65.7713 50.3848 65.7874C50.5463 65.8251 50.78 65.782 50.947 65.782C51.036 65.782 51.1362 65.7713 51.2253 65.782C51.37 65.7928 51.459 65.8573 51.5982 65.8789C51.7707 65.9057 51.9822 65.8735 52.1547 65.8735C52.3718 65.8735 52.511 65.895 52.7113 65.9434C53.0731 66.0348 53.5406 65.9649 53.9191 65.9649C54.292 65.9649 54.6593 65.9649 55.0322 65.9649C55.4107 65.9649 55.8671 66.0348 56.24 65.9703C56.3457 65.9541 56.4125 65.8896 56.5183 65.8735C56.6073 65.8573 56.7075 65.8842 56.7966 65.8789C56.9914 65.8681 57.1528 65.7982 57.3531 65.7874C57.5424 65.782 57.7205 65.7175 57.9097 65.696C58.1045 65.6745 58.2659 65.583 58.4663 65.5346C58.8058 65.454 59.1453 65.4432 59.4904 65.341C59.5683 65.3195 59.585 65.2603 59.6685 65.2442C59.752 65.2281 59.8466 65.2442 59.9301 65.2281C60.0748 65.2012 60.2584 65.099 60.4087 65.0667C60.4922 65.0506 60.5868 65.0667 60.6703 65.0506C60.7148 65.0398 60.8094 64.9914 60.8762 64.9807C61.0655 64.943 61.2436 64.9161 61.4384 64.8946C61.6165 64.8731 61.7055 64.8139 61.9003 64.8032C62.1229 64.7924 62.3344 64.6902 62.5459 64.6418C63.8149 64.346 65.1117 64.0126 66.1915 63.2166C66.3362 63.109 66.4531 62.8885 66.5366 62.7433C66.5755 62.6734 66.6034 62.555 66.6534 62.4959C66.7147 62.4152 66.7926 62.3991 66.8204 62.3023C66.8149 62.2377 66.8149 62.1786 66.8093 62.114C66.8149 62.0656 66.8427 62.028 66.8872 62.0064C66.9095 61.8935 66.8983 61.7806 66.9317 61.6676C66.9874 61.4579 67.0876 61.2266 67.1878 61.0383C67.3492 60.7372 67.5774 60.4682 67.6553 60.1455C67.7109 59.925 67.633 59.6507 67.6497 59.4248C67.6608 59.285 67.7221 59.199 67.7499 59.0645C67.7722 58.9569 67.7443 58.8171 67.7443 58.7041C67.7443 58.4944 67.7388 58.2846 67.7443 58.0749C67.7499 57.8221 67.6497 57.6177 67.6497 57.3596C67.6497 57.1229 67.6497 56.8809 67.6497 56.6442C67.6497 56.5313 67.672 56.3915 67.6553 56.2839C67.633 56.1494 67.5662 56.0634 67.5551 55.9235C67.544 55.7192 67.5885 55.4987 67.5607 55.2943C67.544 55.1706 67.4883 55.1437 67.4605 55.0307C67.4327 54.9286 67.466 54.7726 67.466 54.6704C67.466 54.4391 67.4326 54.181 67.466 53.9497C67.4994 53.6862 67.6775 53.5947 67.2824 53.5947" stroke="white" stroke-width="2" stroke-miterlimit="10" stroke-linejoin="bevel"/>
<path d="M33.2256 53.7293C33.3981 53.74 33.4315 53.6701 33.5985 53.7078C33.7655 53.7508 33.9046 53.8261 34.0549 53.8691C34.4166 53.9767 34.8285 53.9874 35.1736 54.1326C35.463 54.251 35.8025 54.2994 36.0975 54.4016C36.2812 54.4661 36.4704 54.5145 36.6541 54.5629C36.7543 54.5898 36.8322 54.5683 36.9324 54.579C37.0604 54.5952 37.0882 54.649 37.2051 54.6759C37.2941 54.6974 37.3999 54.6436 37.4945 54.6651C37.578 54.6866 37.5835 54.7458 37.6726 54.7619C37.7616 54.7834 37.8674 54.7296 37.962 54.7512C38.0455 54.7727 38.0511 54.8318 38.1346 54.8533C38.2292 54.8748 38.3182 54.8426 38.4184 54.8695C38.5297 54.8964 38.5742 54.934 38.6967 54.9394C38.9138 54.9501 39.0362 55.0147 39.2533 55.0254C39.3757 55.0308 39.4202 55.0685 39.5315 55.0954C39.6317 55.1223 39.7097 55.0954 39.8098 55.1115C39.9156 55.1276 39.9824 55.1922 40.0881 55.2083C40.1883 55.2244 40.2662 55.1976 40.3664 55.2244C40.4777 55.2513 40.5278 55.289 40.6447 55.2944C40.7282 55.2997 40.8451 55.2675 40.9285 55.289C41.012 55.3105 41.0232 55.3697 41.1066 55.3858C41.2235 55.4127 41.3682 55.3481 41.4851 55.375C41.6354 55.4073 41.7857 55.4987 41.9471 55.5364C42.1307 55.5794 42.3144 55.6063 42.5036 55.6493C42.6762 55.6924 42.8598 55.7139 43.038 55.7569C43.1827 55.7945 43.3663 55.886 43.5166 55.9236C43.678 55.9613 43.8338 55.9398 43.9897 56.0043C44.14 56.0688 44.2847 56.128 44.4516 56.1657C44.6464 56.2141 44.8134 56.2087 45.0082 56.2786C45.1808 56.3378 45.3533 56.3485 45.5425 56.3862C45.6538 56.4077 45.8431 56.5045 45.9544 56.526C46.1381 56.5636 46.3106 56.5744 46.4887 56.6174C46.8338 56.6981 47.1621 56.7734 47.5128 56.8164C47.6909 56.8379 47.7799 56.9132 47.9747 56.9079C48.1695 56.9025 48.2586 56.9778 48.4367 56.9993C48.6426 57.0262 48.7985 57.0154 48.9933 57.0692C49.1992 57.123 49.4163 57.0692 49.6222 57.1069C49.6834 57.1176 49.7391 57.166 49.8281 57.1768C49.9172 57.1875 50.0174 57.1768 50.1064 57.1768C50.3179 57.1768 50.4626 57.1983 50.663 57.2467C51.0359 57.3435 51.4812 57.2413 51.8708 57.2628C52.0711 57.2736 52.2214 57.3596 52.4273 57.3543C52.611 57.3489 52.8002 57.3543 52.9839 57.3543C53.3846 57.3543 53.7909 57.3543 54.1917 57.3543C54.3753 57.3543 54.5646 57.3543 54.7482 57.3543C54.8317 57.3543 54.9542 57.3328 55.0321 57.3489C55.1156 57.3704 55.1211 57.4296 55.2102 57.4457C55.3326 57.4726 55.6499 57.4726 55.7779 57.4457C55.8614 57.4242 55.8669 57.365 55.9504 57.3489C56.0562 57.322 56.2176 57.3543 56.3289 57.3543C56.507 57.3543 56.7129 57.3812 56.8855 57.3543C57.0636 57.3328 57.1526 57.2628 57.3474 57.2628C57.7481 57.2682 58.1545 57.2575 58.5552 57.2628C58.7722 57.2628 58.9058 57.2037 59.1118 57.166C59.2008 57.1499 59.301 57.1768 59.39 57.1714C59.5125 57.166 59.557 57.1284 59.6683 57.1015C59.7741 57.0746 59.8464 57.0961 59.9466 57.0853C60.0468 57.0746 60.0746 57.0316 60.1525 57.0154C60.3529 56.967 60.4921 56.9401 60.6869 56.9132C60.8538 56.8863 61.0041 56.7895 61.1432 56.7304C61.3213 56.6497 61.5217 56.6282 61.7054 56.5744C62.0783 56.4615 62.4234 56.3109 62.7462 56.1226C63.2805 55.8161 63.9094 55.6009 64.4827 55.3589C65.0782 55.1115 65.6793 54.7942 66.1747 54.4177C66.2359 54.3693 66.2971 54.3747 66.3639 54.3155C66.4752 54.2187 66.5253 54.0681 66.5921 53.9444C66.709 53.7454 66.8036 53.654 66.8036 53.4119C66.8036 53.0139 66.4808 52.7934 66.1301 52.6267C65.9854 52.5568 65.8407 52.4815 65.6904 52.4223C65.6348 52.4008 65.4789 52.347 65.4177 52.3309C65.3509 52.3363 65.2897 52.3363 65.2229 52.3417C65.1728 52.3363 65.1339 52.3094 65.1116 52.2664C64.8723 52.2126 64.6274 52.1427 64.3881 52.0889C64.2656 52.062 64.1376 52.0297 64.0152 51.9974C63.9205 51.9759 63.787 51.9221 63.7146 51.906C63.3139 51.8307 62.9131 51.7447 62.5347 51.5941C62.3232 51.5134 62.1172 51.465 61.9057 51.4166C61.7388 51.3789 61.5662 51.2391 61.3993 51.1853C60.954 51.0401 60.4698 50.9594 60.0301 50.8034C59.9577 50.7819 59.8353 50.7282 59.7574 50.712C59.6906 50.7174 59.6294 50.7174 59.5626 50.7228C59.5125 50.7174 59.4791 50.6905 59.4568 50.6475C59.3455 50.626 59.2398 50.626 59.1285 50.6098C59.0505 50.5937 58.9503 50.5345 58.8446 50.5291C58.8168 50.4162 58.8335 50.3033 58.8279 50.1849" stroke="white" stroke-width="2" stroke-miterlimit="10" stroke-linejoin="bevel"/>
<path d="M44.357 52.3417C44.3348 52.3417 44.3181 52.3417 44.2958 52.3417C44.7856 52.347 45.1975 52.1427 45.6538 52.0082C46.0657 51.8845 46.4776 51.7716 46.8616 51.5618C47.0508 51.4596 47.2123 51.3251 47.4182 51.2445C47.5017 51.2122 47.6241 51.2014 47.702 51.1638C47.78 51.1208 47.7967 51.0293 47.8746 50.9756C48.036 50.8734 48.2697 50.8035 48.4423 50.7335C48.6037 50.6636 48.7206 50.5776 48.8987 50.5507C49.3105 50.4969 49.7113 50.7174 50.1064 50.7335C50.1955 50.7389 50.2957 50.712 50.3847 50.7282C50.4905 50.7443 50.5573 50.8088 50.663 50.825C50.7465 50.8411 50.8578 50.825 50.9413 50.8196C51.0804 50.8196 51.1361 50.868 51.2418 50.8895C51.4144 50.9272 51.6147 50.868 51.7817 50.9056C51.932 50.9379 52.0823 51.0293 52.2437 51.067C52.3438 51.0939 52.4218 51.0724 52.5219 51.0831C52.6221 51.0939 52.65 51.1369 52.7279 51.153C52.9227 51.2014 53.0674 51.2391 53.2622 51.2821C53.585 51.3574 53.8522 51.4757 54.1694 51.551C54.4922 51.6317 54.8818 51.7823 55.2102 51.9114C55.3772 51.9759 55.5219 51.9921 55.6777 52.0674C55.8002 52.1265 55.917 52.1964 56.045 52.2448C56.3456 52.3685 56.6461 52.4815 56.9077 52.6697C57.1359 52.8365 57.314 53.1753 57.0469 53.3904C56.9634 53.455 56.7742 53.5195 56.674 53.5679C56.5293 53.6378 56.3846 53.7078 56.2398 53.7723C55.917 53.9067 55.4718 54.0789 55.1211 54.138C55.0321 54.1542 54.9263 54.1058 54.8373 54.1273C54.7538 54.1488 54.7482 54.2079 54.6647 54.2241C54.5813 54.2456 54.47 54.2133 54.3809 54.2187C54.2362 54.2241 54.1471 54.294 54.008 54.3155C53.6073 54.3854 53.1175 54.3101 52.7112 54.3101C52.5053 54.3101 52.2604 54.3478 52.06 54.3155C51.9208 54.294 51.8318 54.2241 51.6871 54.2187C51.5646 54.2133 51.4366 54.2187 51.3142 54.2187C51.2251 54.2187 51.125 54.2295 51.0359 54.2187C50.8912 54.2079 50.8021 54.1434 50.663 54.1219C50.535 54.1004 50.4181 54.138 50.2901 54.1057C50.1454 54.0681 50.0786 54.0305 49.9172 54.0358C49.6834 54.0412 49.4998 53.9552 49.266 53.9498C49.0378 53.939 48.7317 53.8368 48.5202 53.7723C48.4423 53.7508 48.4256 53.6916 48.3421 53.6755C48.2196 53.6486 48.0916 53.6916 47.9636 53.6593C47.7521 53.6056 47.5295 53.5303 47.3124 53.498C47.0954 53.4657 46.8783 53.455 46.6612 53.4173C46.5388 53.3958 46.4108 53.3474 46.2883 53.3205C46.177 53.299 46.1214 53.2506 46.0156 53.2237C45.9266 53.2022 45.8208 53.2506 45.7318 53.2345C45.5926 53.2129 45.5036 53.143 45.3589 53.1377C45.2364 53.1323 45.1307 53.143 45.0082 53.1215C44.908 53.1 44.8468 53.0462 44.7077 53.0516C44.4962 53.057 44.357 52.9871 44.1455 52.9655C43.9452 52.944 43.8005 52.7773 43.6001 52.7612C43.6224 52.6482 43.9173 52.5407 44.0342 52.4869C44.1901 52.4116 44.3292 52.4438 44.4962 52.4008C44.6465 52.3632 44.8134 52.218 44.9748 52.1695C45.1975 52.0996 45.6594 52.1749 45.8153 51.9705" stroke="white" stroke-width="2" stroke-miterlimit="10" stroke-linejoin="bevel"/>
<path d="M58.4605 50.1903C58.288 50.1419 58.2268 50.3301 58.032 50.2709C58.1099 50.3301 58.0988 50.443 58.1043 50.5345C58.3437 50.5936 58.6498 50.5506 58.9002 50.5452C58.7444 50.5721 58.3158 50.4915 58.2212 50.3624C58.3938 50.3785 58.5329 50.2494 58.672 50.2064C58.8446 50.158 59.0282 50.1419 59.2063 50.0773C59.39 50.0128 59.5848 49.9267 59.7629 49.8514C60.0078 49.7492 60.2471 49.7008 60.5087 49.6255C60.8371 49.5287 61.1599 49.3781 61.4549 49.3082C61.6107 49.2706 61.7443 49.206 61.8946 49.1953C62.0226 49.1899 62.0616 49.2437 62.1729 49.2706C62.2898 49.2975 62.4066 49.2867 62.5235 49.3082C62.5736 49.319 62.6515 49.3674 62.7239 49.3781C62.8408 49.3996 62.9855 49.3781 63.1079 49.3781C63.325 49.3781 63.4586 49.4373 63.6589 49.4749C63.748 49.4911 63.8482 49.4534 63.9372 49.4642C64.043 49.4803 64.1097 49.5449 64.2155 49.561C64.427 49.5933 64.6496 49.6471 64.8667 49.6471C65.0726 49.6417 65.1505 49.6847 65.3231 49.7385C65.5067 49.7923 65.696 49.7923 65.8852 49.8192C66.0522 49.846 66.2025 49.9429 66.3416 50.002C66.5308 50.0827 66.7479 50.1042 66.9204 50.158C67.093 50.2172 67.2822 50.2978 67.4547 50.3409C67.5549 50.3624 67.644 50.3355 67.7386 50.357C67.8221 50.3785 67.8277 50.4377 67.9111 50.4592C67.9946 50.4753 68.0892 50.4592 68.1727 50.4753C68.2339 50.4861 68.284 50.5399 68.3787 50.5506C68.4788 50.5614 68.5568 50.5399 68.6569 50.5667C68.785 50.599 68.9074 50.6044 69.0298 50.6313C69.1133 50.6528 69.1245 50.712 69.208 50.7281C69.297 50.7496 69.4027 50.6958 69.4974 50.7173C69.5809 50.7389 69.5864 50.798 69.6755 50.8195C69.7701 50.841 69.8591 50.8088 69.9593 50.8357C70.1207 50.8733 70.3044 50.9379 70.4435 50.9755C70.5994 51.0131 70.822 51.1315 70.9834 51.0884C71.2506 51.0131 71.5177 50.7335 71.7404 50.5667C72.0409 50.3409 72.4194 50.1741 72.7477 50.0074C72.8813 49.9375 72.9592 49.8138 73.1095 49.76C73.2988 49.6901 73.4824 49.6309 73.6661 49.5395C74.0446 49.3566 74.3729 49.1469 74.757 49.0017C75.1911 48.8403 75.6252 48.5499 76.076 48.4208C76.3376 48.3455 76.577 48.2325 76.8219 48.1088C76.9165 48.0604 77.0055 48.0013 77.1001 47.9529C77.2059 47.8937 77.3896 47.8668 77.473 47.7754" stroke="white" stroke-width="2" stroke-miterlimit="10" stroke-linejoin="bevel"/>
<path d="M71.2616 50.8195C71.2004 50.7872 71.1503 50.7657 71.0947 50.7388C71.0112 51.0024 71.0724 51.3735 71.0724 51.6478C71.0724 51.8844 71.0891 52.1264 71.078 52.3631C71.0613 52.6589 70.9722 52.9224 70.9778 53.2182C70.9834 53.7184 71.078 54.1917 71.0724 54.6919C71.0668 55.2943 71.0724 55.8913 71.0724 56.4937C71.0724 56.9723 71.078 57.451 71.0724 57.9297C71.0668 58.2309 71.167 58.4944 71.167 58.801C71.167 59.0376 71.167 59.2796 71.167 59.5163C71.167 59.7475 71.1002 60.0864 71.1893 60.2961C71.2561 60.2208 71.3841 59.9788 71.3507 59.8766" stroke="white" stroke-width="2" stroke-miterlimit="10" stroke-linejoin="bevel"/>
<path d="M69.592 46.248C69.5697 46.248 69.553 46.248 69.5308 46.248C69.6866 46.2802 69.8257 46.1888 69.9593 46.135C70.1486 46.0597 70.3434 46.0328 70.5382 45.9791C70.8164 45.8984 71.1003 45.8661 71.3786 45.7747C71.6958 45.6725 72.0075 45.5434 72.3303 45.4627C72.809 45.339 73.3155 45.2046 73.7496 44.9679C73.9722 44.8496 74.1893 44.7636 74.4175 44.656C74.6345 44.5538 74.8572 44.5592 75.0687 44.4516C75.3525 44.3118 75.603 44.1504 75.8757 43.9783C75.9759 43.9138 76.1985 43.86 76.2597 43.7363C76.3321 43.5857 76.2208 43.6341 76.1985 43.5319C76.1762 43.419 76.1762 43.3114 76.1762 43.1931C76.1762 42.8542 76.243 42.4455 76.1818 42.1174C76.1484 41.9184 76.0816 41.7893 76.0816 41.5796C76.0816 41.3698 76.0816 41.1601 76.0816 40.9503C76.0816 40.5523 76.1094 40.1597 76.0093 39.7832C75.9091 39.4175 75.987 38.9281 75.987 38.5462C75.987 37.7072 75.987 36.8628 75.987 36.0238C75.987 35.6365 75.987 35.2439 75.987 34.8567C75.987 34.3887 76.0816 33.9692 76.0816 33.5067C76.0816 33.3292 76.0705 33.1517 76.0816 32.9742C76.0927 32.7483 76.1762 32.5655 76.1762 32.345C76.1762 32.1514 76.2875 31.9846 76.2486 31.8071C76.2263 31.7049 76.1818 31.6512 76.1707 31.5382C76.1595 31.4145 76.1707 31.2854 76.1707 31.1617C76.1707 30.8121 76.1707 30.4572 76.1707 30.1076C76.1707 29.7311 76.2263 29.317 76.1707 28.9405C76.1484 28.7684 76.0705 28.6823 76.076 28.4941C76.0816 28.2843 76.0538 28.1499 76.0037 27.9562C75.9536 27.7788 76.0315 27.5851 75.987 27.413C75.9536 27.2786 75.8033 27.2248 75.9703 27.0903C75.8868 27.1495 75.8145 27.2302 75.7031 27.2355" stroke="white" stroke-width="2" stroke-miterlimit="10" stroke-linejoin="bevel"/>
<path d="M43.0603 25.181C43.244 25.181 43.4332 25.1703 43.6113 25.2026C43.756 25.2294 43.8562 25.2671 44.0065 25.2779C44.1568 25.2832 44.3293 25.251 44.4796 25.2725C44.602 25.2886 44.6966 25.3478 44.8191 25.3693C44.9415 25.3908 45.0751 25.337 45.1975 25.3585C45.2977 25.38 45.3701 25.4392 45.4703 25.4553C45.6317 25.4876 45.8432 25.45 46.0101 25.45C46.3107 25.45 46.55 25.5091 46.8394 25.5468C47.0621 25.5737 47.2958 25.5145 47.5129 25.5414C47.6965 25.5629 47.7912 25.6328 47.9971 25.6328C48.2921 25.6274 48.537 25.6382 48.8153 25.7027C48.9934 25.7458 49.1882 25.7243 49.3718 25.7243C49.4609 25.7243 49.5666 25.7135 49.6501 25.7243C49.7392 25.735 49.7893 25.7834 49.856 25.7942C50.2345 25.8748 50.6519 25.7888 51.0415 25.8103C51.2419 25.8211 51.3922 25.9071 51.5981 25.9017C51.7818 25.8964 51.971 25.9017 52.1547 25.9017C52.3718 25.9017 52.5053 25.9609 52.7113 25.9932C52.9116 26.0254 53.1565 25.9932 53.3625 25.9878C53.5684 25.9878 53.7187 26.0685 53.919 26.0792C54.1027 26.09 54.2919 26.0792 54.4756 26.0792C54.6648 26.0792 54.8596 26.0738 55.0544 26.0792C55.3383 26.0846 55.572 26.1707 55.867 26.1707C56.2678 26.1707 56.6685 26.1707 57.0692 26.1707C57.3085 26.1707 57.5534 26.1707 57.7928 26.1707C58.0377 26.1707 58.2325 26.2513 58.4662 26.2621C58.6777 26.2728 58.8391 26.3428 59.0451 26.3535C59.1675 26.3589 59.2955 26.332 59.418 26.3481C59.546 26.3643 59.6406 26.4234 59.763 26.445C60.2361 26.531 60.8372 26.445 61.3159 26.4396C61.5997 26.4396 61.8335 26.5202 62.1118 26.531C62.3734 26.5364 62.6405 26.531 62.9021 26.531C63.1414 26.5256 63.3418 26.6117 63.57 26.6224C63.7815 26.6332 64.0041 26.6224 64.2156 26.6224C64.4549 26.6171 64.6442 26.7139 64.8835 26.7139C65.184 26.7085 65.4902 26.7139 65.7907 26.7139C66.2861 26.7139 66.7814 26.7139 67.2823 26.7139C67.7443 26.7139 68.2062 26.7192 68.6682 26.7139C68.9019 26.7139 69.0801 26.8053 69.3194 26.8053C69.5643 26.7999 69.8147 26.8053 70.0596 26.8053C70.2767 26.8053 70.4937 26.8053 70.7108 26.8053C71.0114 26.8053 71.2507 26.8967 71.5457 26.8967C71.8184 26.8914 72.0299 26.9667 72.2859 26.9882C72.4362 27.0043 72.6087 26.9505 72.759 26.9828C72.9037 27.0151 72.9872 27.0688 73.1486 27.0796C73.6996 27.1065 74.2228 27.2248 74.7793 27.2571C75.0409 27.2732 75.2636 27.3539 75.5419 27.3485C75.7923 27.3431 76.0094 27.4238 76.2598 27.4453C76.143 27.3969 76.0261 27.3216 75.9148 27.2625" stroke="white" stroke-width="2" stroke-miterlimit="10" stroke-linejoin="bevel"/>
<path d="M41.719 27.7035C41.9416 27.6981 42.0863 27.7573 42.2978 27.7842C42.5594 27.8218 42.8266 27.8164 43.0937 27.8487C43.7505 27.9348 44.4239 27.9509 45.0696 28.0585C45.5315 28.1338 46.0213 27.9939 46.4832 28.0692C46.7114 28.1069 46.884 28.1284 47.1122 28.1284C47.3682 28.1284 47.5908 28.2091 47.858 28.2037C48.075 28.1983 48.2921 28.1983 48.5092 28.1929C48.7429 28.1875 48.9099 28.2575 49.1381 28.2736C49.3218 28.2897 49.5277 28.2628 49.7169 28.2575C49.9563 28.2521 50.1399 28.3274 50.3681 28.3381C50.78 28.3543 51.164 28.3865 51.5759 28.3973C51.6928 28.4027 51.7429 28.4403 51.8542 28.4618C51.9766 28.4887 52.0824 28.4511 52.2048 28.4672C52.3217 28.4834 52.4052 28.5425 52.5276 28.5587C52.6835 28.5855 52.8838 28.5479 53.0452 28.5425C53.2233 28.5371 53.446 28.4995 53.6241 28.5264C53.7298 28.5425 53.8022 28.6017 53.9024 28.6178C53.9914 28.6286 54.0916 28.6017 54.1806 28.6071C54.381 28.6124 54.5313 28.6931 54.7372 28.6877C54.9487 28.6824 55.1825 28.6447 55.3884 28.6931C55.5888 28.7415 55.7335 28.7577 55.945 28.7523C56.162 28.7469 56.2956 28.8061 56.5015 28.833C56.6852 28.8598 56.8745 28.7953 57.0581 28.8383C57.3086 28.8975 57.5535 28.9082 57.8039 28.962C57.9876 28.9997 58.1768 28.9459 58.3605 28.9889C58.4718 29.0158 58.5219 29.0535 58.6388 29.0535C58.7278 29.0535 58.828 29.0266 58.9171 29.0427C59.123 29.075 59.2566 29.1341 59.4736 29.1234C59.6851 29.118 59.9189 29.0857 60.1248 29.1072C60.3029 29.1288 60.392 29.1987 60.5868 29.1879C60.7983 29.1825 60.943 29.1987 61.1434 29.2471C61.3215 29.2901 61.5163 29.2578 61.6999 29.2578C61.9504 29.2525 62.1341 29.3278 62.3734 29.3331C62.5181 29.3385 62.6684 29.3278 62.8131 29.3224C62.8743 29.3224 62.9355 29.3224 63.0023 29.317C63.0914 29.3278 63.147 29.3708 63.2082 29.3869C63.353 29.4138 63.5032 29.4031 63.6535 29.3977C63.8427 29.3923 63.9429 29.4568 64.121 29.4837C64.2323 29.4999 64.377 29.473 64.4939 29.473C64.6832 29.4676 64.7889 29.4945 64.9614 29.5321C65.1173 29.5698 65.2676 29.5268 65.4234 29.5644C65.5959 29.6021 65.7017 29.6289 65.8909 29.6236C66.1859 29.6128 66.4364 29.6881 66.7258 29.6935C66.8927 29.6989 67.0263 29.7688 67.1933 29.7795C67.3436 29.7849 67.505 29.7688 67.6553 29.7688C67.8 29.7634 67.9781 29.7903 68.1172 29.7634C68.2897 29.7311 68.3955 29.672 68.5792 29.6612C68.7406 29.6505 68.8853 29.5913 69.0411 29.5375C69.2025 29.4837 69.3417 29.4837 69.5031 29.4407C69.7758 29.3654 70.0541 29.3278 70.3324 29.2686C70.7053 29.1825 71.0726 29.0212 71.4399 28.9728C72.0076 28.8975 72.5197 28.7092 73.0818 28.5587C73.1876 28.5318 73.2377 28.4887 73.3824 28.4834C73.5605 28.478 73.6829 28.4511 73.8443 28.3812C74.1338 28.2628 74.4677 28.1875 74.7682 28.1123C74.9018 28.08 75.0131 28.0208 75.13 27.9886C75.1968 27.9886 75.258 27.9939 75.3248 27.9939C75.4083 27.9724 75.4139 27.9133 75.4974 27.8917C75.5586 27.8917 75.6254 27.8917 75.6866 27.8917C75.8035 27.8864 75.8536 27.8433 75.9649 27.8164C76.1096 27.7788 76.2821 27.7196 76.4268 27.6981" stroke="white" stroke-width="2" stroke-miterlimit="10" stroke-linejoin="bevel"/>
<path d="M67.8277 31.0112C67.8277 30.9574 67.8277 29.9839 67.8277 29.9355C67.8277 31.4683 67.9167 33.9477 67.8332 35.4752C67.8054 35.9485 67.7386 36.4433 67.6663 36.9112C67.5995 37.3415 67.6718 37.7825 67.6496 38.2128C67.6384 38.3902 67.5605 38.5408 67.5494 38.7183C67.5327 38.8958 67.5549 39.084 67.5549 39.2615C67.5549 39.5842 67.5995 39.9338 67.5327 40.2511C67.3267 41.2623 67.4603 42.4132 67.4603 43.4566C67.4603 44.172 67.4603 44.8873 67.4603 45.5972C67.4603 45.3659 67.4603 45.1347 67.4603 44.9088" stroke="white" stroke-width="2" stroke-miterlimit="10" stroke-linejoin="bevel"/>
<path d="M36.4861 42.5105C38.679 42.4998 52.2148 44.9846 54.3966 45.2481" stroke="white" stroke-width="2" stroke-miterlimit="10" stroke-linejoin="bevel"/>
</svg>
