<svg width="15" height="14" viewBox="0 0 15 14" fill="none" xmlns="http://www.w3.org/2000/svg">
<path d="M14.9463 10.4002C14.854 10.2455 14.6081 10.1526 14.239 9.96683C13.8699 9.78113 12.0555 8.88364 11.7171 8.7597C11.3789 8.63593 11.1328 8.57408 10.8868 8.9454C10.6408 9.31679 9.93351 10.1526 9.71821 10.4002C9.50292 10.6478 9.28762 10.6789 8.91871 10.4931C8.54965 10.3074 7.36048 9.91563 5.9508 8.65152C4.85366 7.66765 4.11298 6.45269 3.8977 6.08123C3.68242 5.70977 3.87475 5.50904 4.05951 5.32402C4.22555 5.15772 4.42859 4.89056 4.61311 4.67397C4.79762 4.45738 4.85913 4.30251 4.98215 4.05506C5.10516 3.80732 5.04367 3.59073 4.95139 3.405C4.85913 3.21927 4.12105 1.39298 3.81352 0.650055C3.51392 -0.0734349 3.20968 0.0245735 2.98316 0.0131439C2.76813 0.00228586 2.52183 0 2.27582 0C2.0298 0 1.62995 0.092865 1.29167 0.464325C0.953397 0.835785 0 1.73343 0 3.55959C0 5.38589 1.32241 7.15018 1.50696 7.39777C1.69147 7.64551 4.10932 11.3931 7.81153 13.0002C8.69204 13.3825 9.37943 13.6108 9.91546 13.7818C10.7995 14.0642 11.6041 14.0244 12.2399 13.9288C12.9491 13.8223 14.4235 13.0313 14.7311 12.1646C15.0385 11.2978 15.0385 10.5549 14.9463 10.4002Z" fill="#A0A0A0"/>
</svg>
