<svg width="26" height="25" viewBox="0 0 26 25" fill="none" xmlns="http://www.w3.org/2000/svg">
<g clip-path="url(#clip0_7_87)">
<path d="M13 25C19.9036 25 25.5 19.4036 25.5 12.5C25.5 5.59644 19.9036 0 13 0C6.09644 0 0.5 5.59644 0.5 12.5C0.5 19.4036 6.09644 25 13 25Z" fill="url(#paint0_linear_7_87)"/>
<path fill-rule="evenodd" clip-rule="evenodd" d="M6.15821 12.3679C9.80221 10.7803 12.2321 9.73365 13.4479 9.22795C16.9193 7.78409 17.6406 7.53327 18.1108 7.52499C18.2142 7.52317 18.4454 7.5488 18.5952 7.67032C18.7216 7.77293 18.7564 7.91155 18.7731 8.00883C18.7897 8.10612 18.8104 8.32775 18.794 8.50092C18.6058 10.4775 17.7919 15.274 17.3778 17.4878C17.2026 18.4245 16.8575 18.7386 16.5235 18.7693C15.7976 18.8361 15.2464 18.2896 14.5433 17.8287C13.4432 17.1076 12.8216 16.6586 11.7538 15.9549C10.5196 15.1416 11.3197 14.6946 12.023 13.9641C12.2071 13.7729 15.4054 10.8638 15.4673 10.5999C15.475 10.5669 15.4822 10.4439 15.4091 10.3789C15.336 10.3139 15.2282 10.3362 15.1503 10.3538C15.04 10.3789 13.2824 11.5405 9.87774 13.8388C9.37887 14.1814 8.92701 14.3483 8.52216 14.3395C8.07585 14.3299 7.21732 14.0872 6.57909 13.8797C5.79628 13.6252 5.17411 13.4907 5.22829 13.0586C5.25651 12.8335 5.56648 12.6033 6.15821 12.3679Z" fill="white"/>
</g>
<defs>
<linearGradient id="paint0_linear_7_87" x1="13" y1="0" x2="13" y2="24.8146" gradientUnits="userSpaceOnUse">
<stop stop-color="#2AABEE"/>
<stop offset="1" stop-color="#229ED9"/>
</linearGradient>
<clipPath id="clip0_7_87">
<rect width="25" height="25" fill="white" transform="translate(0.5)"/>
</clipPath>
</defs>
</svg>
