<svg width="25" height="25" viewBox="0 0 25 25" fill="none" xmlns="http://www.w3.org/2000/svg">
<path d="M12.5 25C19.4036 25 25 19.4036 25 12.5C25 5.59644 19.4036 0 12.5 0C5.59644 0 0 5.59644 0 12.5C0 19.4036 5.59644 25 12.5 25Z" fill="#25D366"/>
<path fill-rule="evenodd" clip-rule="evenodd" d="M12.912 19.4544H12.9089C11.665 19.4539 10.4426 19.1418 9.35696 18.5496L5.41667 19.5832L6.47116 15.7316C5.8207 14.6044 5.47843 13.3257 5.47899 12.0157C5.48062 7.91747 8.81501 4.58325 12.912 4.58325C14.9003 4.58411 16.7666 5.35818 18.1699 6.76315C19.5732 8.16805 20.3457 10.0355 20.3449 12.0215C20.3432 16.1188 17.0102 19.4527 12.912 19.4544ZM9.53952 17.204L9.76511 17.3379C10.7136 17.9008 11.8009 18.1986 12.9095 18.1991H12.912C16.3171 18.1991 19.0885 15.4276 19.0899 12.0211C19.0905 10.3703 18.4485 8.81819 17.2821 7.65043C16.1157 6.48267 14.5646 5.83926 12.9145 5.83869C9.50674 5.83869 6.7353 8.60987 6.73395 12.0161C6.73347 13.1834 7.06009 14.3203 7.67851 15.3039L7.82541 15.5376L7.2013 17.8174L9.53952 17.204ZM16.4023 13.6218C16.5318 13.6844 16.6193 13.7267 16.6567 13.789C16.7031 13.8665 16.7031 14.2383 16.5484 14.6722C16.3936 15.106 15.6516 15.502 15.2947 15.5553C14.9748 15.6031 14.5699 15.6231 14.125 15.4817C13.8552 15.3961 13.5093 15.2818 13.0662 15.0905C11.3251 14.3387 10.1485 12.6512 9.92607 12.3322C9.9105 12.3099 9.8996 12.2943 9.89352 12.2861L9.89202 12.2841C9.79373 12.153 9.13517 11.2743 9.13517 10.3649C9.13517 9.50942 9.5554 9.06102 9.74883 8.85461C9.76208 8.84047 9.77427 8.82747 9.78518 8.81555C9.95542 8.62961 10.1566 8.58312 10.2804 8.58312C10.4042 8.58312 10.5282 8.58427 10.6364 8.5897C10.6497 8.59037 10.6636 8.59029 10.678 8.59021C10.7862 8.58957 10.9212 8.58878 11.0543 8.90851C11.1055 9.03157 11.1804 9.21399 11.2594 9.4064C11.4192 9.79546 11.5958 10.2253 11.6269 10.2875C11.6733 10.3805 11.7043 10.4889 11.6424 10.6129C11.6331 10.6315 11.6245 10.6491 11.6163 10.6658C11.5698 10.7607 11.5356 10.8306 11.4566 10.9227C11.4256 10.9589 11.3935 10.998 11.3615 11.0371C11.2976 11.1149 11.2337 11.1927 11.1781 11.2481C11.0851 11.3407 10.9883 11.4412 11.0966 11.6271C11.205 11.8131 11.5777 12.4212 12.1298 12.9137C12.7233 13.4431 13.2392 13.6668 13.5006 13.7803C13.5517 13.8024 13.593 13.8203 13.6234 13.8355C13.809 13.9285 13.9174 13.913 14.0257 13.789C14.1341 13.6651 14.49 13.2467 14.6138 13.0608C14.7376 12.875 14.8614 12.9059 15.0316 12.9679C15.2019 13.0299 16.115 13.4791 16.3007 13.5721C16.337 13.5903 16.3709 13.6066 16.4023 13.6218Z" fill="#FDFDFD"/>
</svg>
