<svg width="24" height="18" viewBox="0 0 24 18" fill="none" xmlns="http://www.w3.org/2000/svg">
<path d="M20.6879 0.451625C20.8329 0.308635 21.006 0.19504 21.197 0.117492C21.3881 0.0399436 21.5932 0 21.8004 0C22.0075 0 22.2127 0.0399436 22.4037 0.117492C22.5947 0.19504 22.7678 0.308635 22.9128 0.451625C23.5205 1.04507 23.529 2.00404 22.934 2.60776L10.3689 16.9614C10.2263 17.1128 10.0531 17.2345 9.86015 17.319C9.66716 17.4035 9.45835 17.4491 9.24651 17.4529C9.03467 17.4567 8.82424 17.4188 8.6281 17.3413C8.43196 17.2639 8.25424 17.1486 8.1058 17.0025L0.460045 9.51559C0.165174 9.22499 0 8.83424 0 8.42726C0 8.02027 0.165174 7.62952 0.460045 7.33892C0.605068 7.19593 0.778155 7.08234 0.969171 7.00479C1.16019 6.92724 1.36529 6.8873 1.57248 6.8873C1.77967 6.8873 1.98478 6.92724 2.1758 7.00479C2.36681 7.08234 2.5399 7.19593 2.68492 7.33892L9.17042 13.6903L20.6454 0.496801C20.6586 0.480932 20.6728 0.465845 20.6879 0.451625Z" fill="#B0CB1F"/>
</svg>
