<svg width="4" height="6" viewBox="0 0 4 6" fill="none" xmlns="http://www.w3.org/2000/svg">
<path d="M0.15296 5.86793C0.0550197 5.78334 -1.44847e-08 5.66863 -1.9713e-08 5.54902C-2.49413e-08 5.42941 0.0550196 5.3147 0.15296 5.23011L2.73897 2.99728L0.152959 0.764445C0.0577951 0.679371 0.00513716 0.565428 0.00632747 0.447157C0.00751777 0.328886 0.062461 0.21575 0.159323 0.132117C0.256185 0.0484834 0.387216 0.00104473 0.524195 1.71432e-05C0.661174 -0.00101092 0.79314 0.044455 0.891671 0.126623L3.84704 2.67837C3.94498 2.76295 4 2.87767 4 2.99728C4 3.11689 3.94498 3.2316 3.84704 3.31619L0.891671 5.86793C0.793702 5.95249 0.660844 6 0.522315 6C0.383786 6 0.250929 5.95249 0.15296 5.86793Z" fill="#B0CB1F"/>
</svg>
