<svg width="24" height="24" viewBox="0 0 24 24" fill="none" xmlns="http://www.w3.org/2000/svg">
<g clip-path="url(#clip0_725_881)">
<path d="M1.859 6L1.37 4H22.626L22.135 6H1.859V6ZM3.44 2L3.001 0H20.995L20.556 2H3.44V2ZM24 18H0L2 24H22L24 18ZM3.104 16L2.29 10H21.701L20.862 16H22.882L24 8H0L1.085 16H3.104V16ZM5.888 12.005C5.839 11.45 6.307 11 6.931 11C7.556 11 8.086 11.449 8.116 12.004C8.146 12.559 7.678 13.009 7.072 13.009C6.467 13.009 5.936 12.56 5.888 12.005V12.005ZM13.463 11.781L11.639 14.461L9.826 13.149L7 16H17L13.463 11.781V11.781Z" fill="white"/>
</g>
<defs>
<clipPath id="clip0_725_881">
<rect width="24" height="24" fill="white"/>
</clipPath>
</defs>
</svg>
